<svg width="16" height="16" viewBox="0 0 16 16" fill="none" xmlns="http://www.w3.org/2000/svg">
<path d="M10.8276 11.7714C11.088 12.0318 11.5101 12.0318 11.7705 11.7714C12.0308 11.5111 12.0308 11.089 11.7705 10.8286L8.94203 8.0002L11.7705 5.17178C12.0308 4.91143 12.0308 4.48932 11.7705 4.22897C11.5101 3.96862 11.088 3.96862 10.8276 4.22897L7.99922 7.05739L5.17079 4.22895C4.91044 3.9686 4.48833 3.9686 4.22798 4.22895C3.96763 4.4893 3.96763 4.91141 4.22798 5.17176L7.05641 8.0002L4.22798 10.8286C3.96763 11.089 3.96763 11.5111 4.22798 11.7714C4.48833 12.0318 4.91044 12.0318 5.17079 11.7714L7.99922 8.94301L10.8276 11.7714Z" fill="#AEAEB2"/>
</svg>