<svg width="40" height="40" viewBox="0 0 40 40" fill="none" xmlns="http://www.w3.org/2000/svg">
<circle cx="20" cy="20" r="12.5" fill="#FFD2D2"/>
<path d="M23.4937 24.6722C23.8191 24.9976 24.3467 24.9976 24.6722 24.6722C24.9976 24.3467 24.9976 23.8191 24.6722 23.4937L21.1366 19.9581L24.6722 16.4226C24.9976 16.0972 24.9976 15.5695 24.6722 15.2441C24.3467 14.9187 23.8191 14.9187 23.4937 15.2441L19.9581 18.7796L16.4226 15.2441C16.0972 14.9186 15.5695 14.9186 15.2441 15.2441C14.9186 15.5695 14.9186 16.0972 15.2441 16.4226L18.7796 19.9581L15.2441 23.4937C14.9186 23.8191 14.9186 24.3467 15.2441 24.6722C15.5695 24.9976 16.0972 24.9976 16.4226 24.6722L19.9581 21.1366L23.4937 24.6722Z" fill="#EB0000"/>
<path fill-rule="evenodd" clip-rule="evenodd" d="M25.0257 25.0257C24.505 25.5464 23.6608 25.5464 23.1401 25.0257L19.9581 21.8438L16.7761 25.0257C16.2554 25.5464 15.4112 25.5464 14.8905 25.0257C14.3698 24.505 14.3698 23.6608 14.8905 23.1401L18.0725 19.9581L14.8905 16.7761C14.3698 16.2554 14.3698 15.4112 14.8905 14.8905C15.4112 14.3698 16.2554 14.3698 16.7761 14.8905L19.9581 18.0725L23.1401 14.8905C23.6608 14.3698 24.505 14.3698 25.0257 14.8905C25.5464 15.4112 25.5464 16.2555 25.0257 16.7762L21.8438 19.9581L25.0257 23.1401C25.5464 23.6608 25.5464 24.505 25.0257 25.0257ZM24.6722 23.4937C24.9976 23.8191 24.9976 24.3467 24.6722 24.6722C24.3467 24.9976 23.8191 24.9976 23.4937 24.6722L19.9581 21.1366L16.4226 24.6722C16.0972 24.9976 15.5695 24.9976 15.2441 24.6722C14.9186 24.3467 14.9186 23.8191 15.2441 23.4937L18.7796 19.9581L15.2441 16.4226C14.9186 16.0972 14.9186 15.5695 15.2441 15.2441C15.5695 14.9186 16.0972 14.9186 16.4226 15.2441L19.9581 18.7796L23.4937 15.2441C23.8191 14.9187 24.3467 14.9187 24.6722 15.2441C24.9976 15.5695 24.9976 16.0972 24.6722 16.4226L21.1366 19.9581L24.6722 23.4937Z" fill="#EB0000"/>
</svg>