<svg width="40" height="40" viewBox="0 0 40 40" fill="none" xmlns="http://www.w3.org/2000/svg">
<circle cx="20" cy="20" r="12.5" fill="#D4F5E1"/>
<path fill-rule="evenodd" clip-rule="evenodd" d="M25.9634 15.1819C26.2974 15.4633 26.3466 15.9701 26.0734 16.314L19.6413 24.4099C19.0198 25.1921 17.86 25.1975 17.2316 24.421L13.9311 20.3423C13.6549 20.001 13.6997 19.4936 14.0311 19.2092C14.3626 18.9247 14.8552 18.9709 15.1314 19.3122L18.432 23.3909L24.8641 15.2951C25.1373 14.9512 25.6295 14.9005 25.9634 15.1819Z" fill="#00B52F"/>
<path fill-rule="evenodd" clip-rule="evenodd" d="M24.5704 15.0619C24.9738 14.5542 25.7079 14.4762 26.2051 14.8952C26.6957 15.3085 26.7652 16.0461 26.367 16.5473L19.9349 24.6432C19.1642 25.6133 17.7195 25.6201 16.9401 24.657L13.6396 20.5782C13.2368 20.0806 13.3001 19.3424 13.7869 18.9247C14.2802 18.5013 15.015 18.5722 15.4229 19.0764L18.4293 22.7915L24.5704 15.0619ZM25.7218 15.4687C25.5511 15.3249 25.3008 15.3483 25.1577 15.5284L18.4346 23.9904L14.8399 19.5481C14.6954 19.3696 14.4449 19.3483 14.2753 19.4938C14.0992 19.645 14.0729 19.9214 14.2226 20.1065L17.5231 24.1852C18.0004 24.775 18.8753 24.7711 19.3477 24.1766L25.7798 16.0808C25.928 15.8942 25.8991 15.6181 25.7218 15.4687Z" fill="#00B52F"/>
</svg>