<svg width="40" height="40" viewBox="0 0 40 40" fill="none" xmlns="http://www.w3.org/2000/svg">
<path d="M18.1007 8.5573C18.978 7.14757 21.022 7.14756 21.8993 8.5573L34.656 29.0581C35.5883 30.5565 34.5159 32.5 32.7567 32.5H7.24327C5.48414 32.5 4.41168 30.5565 5.34402 29.0582L18.1007 8.5573Z" fill="#FFF5BE"/>
<path d="M20.0003 24.5943C19.6185 24.5943 19.2523 24.4521 18.9823 24.199C18.7122 23.9459 18.5605 23.6026 18.5605 23.2446V16.4959C18.5605 16.1379 18.7122 15.7946 18.9823 15.5414C19.2523 15.2883 19.6185 15.1461 20.0003 15.1461C20.3822 15.1461 20.7484 15.2883 21.0184 15.5414C21.2885 15.7946 21.4401 16.1379 21.4401 16.4959V23.2446C21.4401 23.6026 21.2885 23.9459 21.0184 24.199C20.7484 24.4521 20.3822 24.5943 20.0003 24.5943Z" fill="#FF8A00"/>
<path d="M20.0003 28.6436C20.7955 28.6436 21.4401 28.0393 21.4401 27.2938C21.4401 26.5484 20.7955 25.9441 20.0003 25.9441C19.2052 25.9441 18.5605 26.5484 18.5605 27.2938C18.5605 28.0393 19.2052 28.6436 20.0003 28.6436Z" fill="#FF8A00"/>
</svg>